<?xml version="1.0" encoding="us-ascii" standalone="no"?><svg xmlns="http://www.w3.org/2000/svg" xmlns:xlink="http://www.w3.org/1999/xlink" contentStyleType="text/css" height="582px" preserveAspectRatio="none" style="width:899px;height:582px;background:#FFFFFF;" version="1.1" viewBox="0 0 899 582" width="899px" zoomAndPan="magnify"><defs/><g><!--class Employee--><g id="elem_Employee"><rect codeLine="3" fill="#F1F1F1" height="149.2656" id="Employee" rx="2.5" ry="2.5" style="stroke:#181818;stroke-width:0.5;" width="350" x="231" y="199"/><ellipse cx="370.75" cy="221.6094" fill="#ADD1B2" rx="11" ry="11" style="stroke:#181818;stroke-width:1.0;"/><path d="M369.3125,220.4375 L373.8281,220.4375 L373.8281,222.2344 L369.3125,222.2344 L369.3125,226.6875 L374.5469,226.6875 L374.5469,228.4688 L367.25,228.4688 L367.25,215 L374.2188,215 L374.2188,216.7813 L369.3125,216.7813 L369.3125,220.4375 Z " fill="#000000"/><text fill="#000000" font-family="sans-serif" font-size="14" lengthAdjust="spacing" textLength="62" x="391.25" y="218.5332">Employee</text><text fill="#000000" font-family="sans-serif" font-size="14" lengthAdjust="spacing" textLength="56" x="394.25" y="236.1426">&#12304;&#31038;&#21729;&#12305;</text><line style="stroke:#181818;stroke-width:0.5;" x1="232" x2="580" y1="244.2188" y2="244.2188"/><ellipse cx="242" cy="258.5234" fill="#000000" rx="3" ry="3" style="stroke:#000000;stroke-width:1.0;"/><text fill="#000000" font-family="sans-serif" font-size="14" lengthAdjust="spacing" textLength="250" x="251" y="262.752">id : int &#171;PK&#187;              ' &#31038;&#21729;ID&#65288;&#20027;&#12461;&#12540;&#65289;</text><line style="stroke:#181818;stroke-width:1.0;" x1="232" x2="580" y1="269.8281" y2="269.8281"/><text fill="#000000" font-family="sans-serif" font-size="14" lengthAdjust="spacing" textLength="189" x="237" y="288.3613">name : string                  ' &#27663;&#21517;</text><text fill="#000000" font-family="sans-serif" font-size="14" lengthAdjust="spacing" textLength="253" x="237" y="305.9707">email : string                 ' &#12513;&#12540;&#12523;&#12450;&#12489;&#12524;&#12473;</text><text fill="#000000" font-family="sans-serif" font-size="14" lengthAdjust="spacing" textLength="209" x="237" y="323.5801">hire_date : date               ' &#20837;&#31038;&#26085;</text><text fill="#000000" font-family="sans-serif" font-size="14" lengthAdjust="spacing" textLength="338" x="237" y="341.1895">site_id : int &#171;FK&#187;           ' &#29694;&#22312;&#12398;&#37197;&#23646;&#29694;&#22580;ID&#65288;&#21442;&#29031;&#29992;&#65289;</text></g><!--class Site--><g id="elem_Site"><rect codeLine="13" fill="#F1F1F1" height="114.0469" id="Site" rx="2.5" ry="2.5" style="stroke:#181818;stroke-width:0.5;" width="276" x="7" y="7"/><ellipse cx="112.75" cy="29.6094" fill="#ADD1B2" rx="11" ry="11" style="stroke:#181818;stroke-width:1.0;"/><path d="M111.3125,28.4375 L115.8281,28.4375 L115.8281,30.2344 L111.3125,30.2344 L111.3125,34.6875 L116.5469,34.6875 L116.5469,36.4688 L109.25,36.4688 L109.25,23 L116.2188,23 L116.2188,24.7813 L111.3125,24.7813 L111.3125,28.4375 Z " fill="#000000"/><text fill="#000000" font-family="sans-serif" font-size="14" lengthAdjust="spacing" textLength="24" x="149.25" y="26.5332">Site</text><text fill="#000000" font-family="sans-serif" font-size="14" lengthAdjust="spacing" textLength="56" x="133.25" y="44.1426">&#12304;&#29694;&#22580;&#12305;</text><line style="stroke:#181818;stroke-width:0.5;" x1="8" x2="282" y1="52.2188" y2="52.2188"/><ellipse cx="18" cy="66.5234" fill="#000000" rx="3" ry="3" style="stroke:#000000;stroke-width:1.0;"/><text fill="#000000" font-family="sans-serif" font-size="14" lengthAdjust="spacing" textLength="250" x="27" y="70.752">id : int &#171;PK&#187;              ' &#29694;&#22580;ID&#65288;&#20027;&#12461;&#12540;&#65289;</text><line style="stroke:#181818;stroke-width:1.0;" x1="8" x2="282" y1="77.8281" y2="77.8281"/><text fill="#000000" font-family="sans-serif" font-size="14" lengthAdjust="spacing" textLength="203" x="13" y="96.3613">name : string                  ' &#29694;&#22580;&#21517;</text><text fill="#000000" font-family="sans-serif" font-size="14" lengthAdjust="spacing" textLength="201" x="13" y="113.9707">location : string              ' &#25152;&#22312;&#22320;</text></g><!--class EmployeeSiteHistory--><g id="elem_EmployeeSiteHistory"><rect codeLine="21" fill="#F1F1F1" height="149.2656" id="EmployeeSiteHistory" rx="2.5" ry="2.5" style="stroke:#181818;stroke-width:0.5;" width="399" x="42.5" y="426"/><ellipse cx="173.25" cy="448.6094" fill="#ADD1B2" rx="11" ry="11" style="stroke:#181818;stroke-width:1.0;"/><path d="M171.8125,447.4375 L176.3281,447.4375 L176.3281,449.2344 L171.8125,449.2344 L171.8125,453.6875 L177.0469,453.6875 L177.0469,455.4688 L169.75,455.4688 L169.75,442 L176.7188,442 L176.7188,443.7813 L171.8125,443.7813 L171.8125,447.4375 Z " fill="#000000"/><text fill="#000000" font-family="sans-serif" font-size="14" lengthAdjust="spacing" textLength="129" x="193.75" y="445.5332">EmployeeSiteHistory</text><text fill="#000000" font-family="sans-serif" font-size="14" lengthAdjust="spacing" textLength="112" x="202.25" y="463.1426">&#12304;&#31038;&#21729;&#29694;&#22580;&#23653;&#27508;&#12305;</text><line style="stroke:#181818;stroke-width:0.5;" x1="43.5" x2="440.5" y1="471.2188" y2="471.2188"/><ellipse cx="53.5" cy="485.5234" fill="#000000" rx="3" ry="3" style="stroke:#000000;stroke-width:1.0;"/><text fill="#000000" font-family="sans-serif" font-size="14" lengthAdjust="spacing" textLength="250" x="62.5" y="489.752">id : int &#171;PK&#187;              ' &#23653;&#27508;ID&#65288;&#20027;&#12461;&#12540;&#65289;</text><line style="stroke:#181818;stroke-width:1.0;" x1="43.5" x2="440.5" y1="496.8281" y2="496.8281"/><text fill="#000000" font-family="sans-serif" font-size="14" lengthAdjust="spacing" textLength="267" x="48.5" y="515.3613">employee_id : int &#171;FK&#187;       ' &#31038;&#21729;ID&#65288;FK&#65289;</text><text fill="#000000" font-family="sans-serif" font-size="14" lengthAdjust="spacing" textLength="244" x="48.5" y="532.9707">site_id : int &#171;FK&#187;           ' &#29694;&#22580;ID&#65288;FK&#65289;</text><text fill="#000000" font-family="sans-serif" font-size="14" lengthAdjust="spacing" textLength="237" x="48.5" y="550.5801">start_date : date              ' &#37197;&#23646;&#38283;&#22987;&#26085;</text><text fill="#000000" font-family="sans-serif" font-size="14" lengthAdjust="spacing" textLength="387" x="48.5" y="568.1895">end_date : date                ' &#37197;&#23646;&#32066;&#20102;&#26085;&#65288;NULL&#12394;&#12425;&#29694;&#37197;&#23646;&#20013;&#65289;</text></g><!--class Training--><g id="elem_Training"><rect codeLine="31" fill="#F1F1F1" height="149.2656" id="Training" rx="2.5" ry="2.5" style="stroke:#181818;stroke-width:0.5;" width="276" x="616" y="199"/><ellipse cx="721.75" cy="221.6094" fill="#ADD1B2" rx="11" ry="11" style="stroke:#181818;stroke-width:1.0;"/><path d="M720.3125,220.4375 L724.8281,220.4375 L724.8281,222.2344 L720.3125,222.2344 L720.3125,226.6875 L725.5469,226.6875 L725.5469,228.4688 L718.25,228.4688 L718.25,215 L725.2188,215 L725.2188,216.7813 L720.3125,216.7813 L720.3125,220.4375 Z " fill="#000000"/><text fill="#000000" font-family="sans-serif" font-size="14" lengthAdjust="spacing" textLength="52" x="744.25" y="218.5332">Training</text><text fill="#000000" font-family="sans-serif" font-size="14" lengthAdjust="spacing" textLength="56" x="742.25" y="236.1426">&#12304;&#30740;&#20462;&#12305;</text><line style="stroke:#181818;stroke-width:0.5;" x1="617" x2="891" y1="244.2188" y2="244.2188"/><ellipse cx="627" cy="258.5234" fill="#000000" rx="3" ry="3" style="stroke:#000000;stroke-width:1.0;"/><text fill="#000000" font-family="sans-serif" font-size="14" lengthAdjust="spacing" textLength="250" x="636" y="262.752">id : int &#171;PK&#187;              ' &#30740;&#20462;ID&#65288;&#20027;&#12461;&#12540;&#65289;</text><line style="stroke:#181818;stroke-width:1.0;" x1="617" x2="891" y1="269.8281" y2="269.8281"/><text fill="#000000" font-family="sans-serif" font-size="14" lengthAdjust="spacing" textLength="203" x="622" y="288.3613">name : string                  ' &#30740;&#20462;&#21517;</text><text fill="#000000" font-family="sans-serif" font-size="14" lengthAdjust="spacing" textLength="223" x="622" y="305.9707">description : string           ' &#20869;&#23481;&#35500;&#26126;</text><text fill="#000000" font-family="sans-serif" font-size="14" lengthAdjust="spacing" textLength="209" x="622" y="323.5801">start_date : date              ' &#38283;&#22987;&#26085;</text><text fill="#000000" font-family="sans-serif" font-size="14" lengthAdjust="spacing" textLength="213" x="622" y="341.1895">end_date : date                ' &#32066;&#20102;&#26085;</text></g><!--class EmployeeTraining--><g id="elem_EmployeeTraining"><rect codeLine="41" fill="#F1F1F1" height="149.2656" id="EmployeeTraining" rx="2.5" ry="2.5" style="stroke:#181818;stroke-width:0.5;" width="336" x="532" y="426"/><ellipse cx="638.75" cy="448.6094" fill="#ADD1B2" rx="11" ry="11" style="stroke:#181818;stroke-width:1.0;"/><path d="M637.3125,447.4375 L641.8281,447.4375 L641.8281,449.2344 L637.3125,449.2344 L637.3125,453.6875 L642.5469,453.6875 L642.5469,455.4688 L635.25,455.4688 L635.25,442 L642.2188,442 L642.2188,443.7813 L637.3125,443.7813 L637.3125,447.4375 Z " fill="#000000"/><text fill="#000000" font-family="sans-serif" font-size="14" lengthAdjust="spacing" textLength="114" x="659.25" y="445.5332">EmployeeTraining</text><text fill="#000000" font-family="sans-serif" font-size="14" lengthAdjust="spacing" textLength="112" x="660.25" y="463.1426">&#12304;&#31038;&#21729;&#30740;&#20462;&#23653;&#27508;&#12305;</text><line style="stroke:#181818;stroke-width:0.5;" x1="533" x2="867" y1="471.2188" y2="471.2188"/><ellipse cx="543" cy="485.5234" fill="#000000" rx="3" ry="3" style="stroke:#000000;stroke-width:1.0;"/><text fill="#000000" font-family="sans-serif" font-size="14" lengthAdjust="spacing" textLength="250" x="552" y="489.752">id : int &#171;PK&#187;              ' &#21463;&#35611;ID&#65288;&#20027;&#12461;&#12540;&#65289;</text><line style="stroke:#181818;stroke-width:1.0;" x1="533" x2="867" y1="496.8281" y2="496.8281"/><text fill="#000000" font-family="sans-serif" font-size="14" lengthAdjust="spacing" textLength="267" x="538" y="515.3613">employee_id : int &#171;FK&#187;       ' &#31038;&#21729;ID&#65288;FK&#65289;</text><text fill="#000000" font-family="sans-serif" font-size="14" lengthAdjust="spacing" textLength="253" x="538" y="532.9707">training_id : int &#171;FK&#187;       ' &#30740;&#20462;ID&#65288;FK&#65289;</text><text fill="#000000" font-family="sans-serif" font-size="14" lengthAdjust="spacing" textLength="324" x="538" y="550.5801">status : string                ' &#29366;&#27841;&#65288;&#20363;&#65306;&#21463;&#35611;&#20013;&#12539;&#23436;&#20102;&#65289;</text><text fill="#000000" font-family="sans-serif" font-size="14" lengthAdjust="spacing" textLength="233" x="538" y="568.1895">score : int                    ' &#35413;&#20385;&#12539;&#12473;&#12467;&#12450;</text></g><!--link Employee to EmployeeSiteHistory--><g id="link_Employee_EmployeeSiteHistory"><path codeLine="56" d="M347.5891,354.6358 C329.4691,379.5058 324.5506,386.2326 306.4206,411.1126 " fill="none" id="Employee-EmployeeSiteHistory" style="stroke:#181818;stroke-width:1.0;"/><line style="stroke:#181818;stroke-width:1.0;" x1="346.7116" x2="353.1775" y1="349.0475" y2="353.7584"/><line style="stroke:#181818;stroke-width:1.0;" x1="344.945" x2="351.4108" y1="351.4721" y2="356.1831"/><line style="stroke:#181818;stroke-width:1.0;" x1="347.5891" x2="352.3" y1="354.6358" y2="348.17"/><line style="stroke:#181818;stroke-width:1.0;" x1="300.5314" x2="300.6691" y1="419.1945" y2="429.1935"/><line style="stroke:#181818;stroke-width:1.0;" x1="300.5314" x2="290.9709" y1="419.1945" y2="422.1265"/><line style="stroke:#181818;stroke-width:1.0;" x1="300.5314" x2="295.82" y1="419.1945" y2="425.66"/><ellipse cx="304.0649" cy="414.3454" fill="none" rx="4" ry="4" style="stroke:#181818;stroke-width:1.0;"/><text fill="#000000" font-family="sans-serif" font-size="13" lengthAdjust="spacing" textLength="91" x="330" y="392.4951">&#37197;&#23646;&#23653;&#27508;&#12434;&#25345;&#12388;</text></g><!--link Site to EmployeeSiteHistory--><g id="link_Site_EmployeeSiteHistory"><path codeLine="60" d="M129.8309,128.8966 C118.2609,187.1266 108.6,272.29 133,348 C141.9,375.6 147.2476,387.9105 164.2876,411.1205 " fill="none" id="Site-EmployeeSiteHistory" style="stroke:#181818;stroke-width:1.0;"/><line style="stroke:#181818;stroke-width:1.0;" x1="126.6872" x2="134.5338" y1="124.1938" y2="125.7528"/><line style="stroke:#181818;stroke-width:1.0;" x1="126.1025" x2="133.9491" y1="127.1362" y2="128.6953"/><line style="stroke:#181818;stroke-width:1.0;" x1="129.8309" x2="131.39" y1="128.8966" y2="121.05"/><line style="stroke:#181818;stroke-width:1.0;" x1="170.2056" x2="179.7765" y1="419.1813" y2="422.0792"/><line style="stroke:#181818;stroke-width:1.0;" x1="170.2056" x2="170.1035" y1="419.1813" y2="429.1808"/><line style="stroke:#181818;stroke-width:1.0;" x1="170.2056" x2="174.94" y1="419.1813" y2="425.63"/><ellipse cx="166.6548" cy="414.3448" fill="none" rx="4" ry="4" style="stroke:#181818;stroke-width:1.0;"/><text fill="#000000" font-family="sans-serif" font-size="13" lengthAdjust="spacing" textLength="78" x="134" y="278.9951">&#23653;&#27508;&#23550;&#35937;&#29694;&#22580;</text></g><!--link Site to Employee--><g id="link_Site_Employee"><path codeLine="64" d="M221.8914,126.1295 C251.9314,150.0195 267.0306,162.0178 299.1406,187.5478 " fill="none" id="Site-Employee" style="stroke:#181818;stroke-width:1.0;"/><line style="stroke:#181818;stroke-width:1.0;" x1="216.2709" x2="221.2504" y1="126.7704" y2="120.5091"/><line style="stroke:#181818;stroke-width:1.0;" x1="218.6189" x2="223.5984" y1="128.6377" y2="122.3764"/><line style="stroke:#181818;stroke-width:1.0;" x1="221.8914" x2="215.63" y1="126.1295" y2="121.15"/><line style="stroke:#181818;stroke-width:1.0;" x1="306.968" x2="316.9641" y1="193.7713" y2="194.0535"/><line style="stroke:#181818;stroke-width:1.0;" x1="306.968" x2="309.4959" y1="193.7713" y2="203.4465"/><line style="stroke:#181818;stroke-width:1.0;" x1="306.968" x2="313.23" y1="193.7713" y2="198.75"/><ellipse cx="302.2716" cy="190.0372" fill="none" rx="4" ry="4" style="stroke:#181818;stroke-width:1.0;"/><text fill="#000000" font-family="sans-serif" font-size="13" lengthAdjust="spacing" textLength="65" x="277" y="165.4951">&#29694;&#22312;&#12398;&#37197;&#23646;</text></g><!--link Employee to EmployeeTraining--><g id="link_Employee_EmployeeTraining"><path codeLine="68" d="M508.6226,353.0325 C541.1926,377.9625 556.9044,389.9922 589.4744,414.9122 " fill="none" id="Employee-EmployeeTraining" style="stroke:#181818;stroke-width:1.0;"/><line style="stroke:#181818;stroke-width:1.0;" x1="503.0151" x2="507.8776" y1="353.7776" y2="347.4249"/><line style="stroke:#181818;stroke-width:1.0;" x1="505.3973" x2="510.2598" y1="355.601" y2="349.2484"/><line style="stroke:#181818;stroke-width:1.0;" x1="508.6226" x2="502.27" y1="353.0325" y2="348.17"/><line style="stroke:#181818;stroke-width:1.0;" x1="597.4164" x2="607.4159" y1="420.9887" y2="421.0848"/><line style="stroke:#181818;stroke-width:1.0;" x1="597.4164" x2="600.1241" y1="420.9887" y2="430.6152"/><line style="stroke:#181818;stroke-width:1.0;" x1="597.4164" x2="603.77" y1="420.9887" y2="425.85"/><ellipse cx="592.6512" cy="417.3428" fill="none" rx="4" ry="4" style="stroke:#181818;stroke-width:1.0;"/><text fill="#000000" font-family="sans-serif" font-size="13" lengthAdjust="spacing" textLength="52" x="563" y="392.4951">&#30740;&#20462;&#21463;&#35611;</text></g><!--link Training to EmployeeTraining--><g id="link_Training_EmployeeTraining"><path codeLine="72" d="M734.4527,355.949 C728.4827,380.819 727.8899,383.2768 721.9199,408.1568 " fill="none" id="Training-EmployeeTraining" style="stroke:#181818;stroke-width:1.0;"/><line style="stroke:#181818;stroke-width:1.0;" x1="731.4968" x2="739.2758" y1="351.1258" y2="352.9932"/><line style="stroke:#181818;stroke-width:1.0;" x1="730.7966" x2="738.5756" y1="354.043" y2="355.9103"/><line style="stroke:#181818;stroke-width:1.0;" x1="734.4527" x2="736.32" y1="355.949" y2="348.17"/><line style="stroke:#181818;stroke-width:1.0;" x1="719.5866" x2="723.5544" y1="417.8808" y2="427.06"/><line style="stroke:#181818;stroke-width:1.0;" x1="719.5866" x2="711.8856" y1="417.8808" y2="424.26"/><line style="stroke:#181818;stroke-width:1.0;" x1="719.5866" x2="717.72" y1="417.8808" y2="425.66"/><ellipse cx="720.9866" cy="412.0464" fill="none" rx="4" ry="4" style="stroke:#181818;stroke-width:1.0;"/><text fill="#000000" font-family="sans-serif" font-size="13" lengthAdjust="spacing" textLength="78" x="730" y="392.4951">&#21463;&#35611;&#23550;&#35937;&#30740;&#20462;</text></g><!--SRC=[hLLTJnD157tlhvZmqiIa9huIv4c91c9Cr3SJqj2DRW9RqguF14oOMGhK5bk-jH0efCX7eT202jAK_-BiRCiJ_WJlxaotkqkt5dL3IjgTSy-TUywzDuXgXIfRtABQDDKgL5kXMl6cCij_DBG4ovTlAic0fAYoEeQw7e-C3aV79EcrGYUp0ZavtuN2STHuXSO32Dr3SWHr8rbHKK_Fy_xUNkHwWeBrwIFWqiylAJa2TfC8eL08FfJmY0Juk1gJbJVerXD4nac6PUVWf3GIbeVzZmOHrRQicnKfsQPQacg7b5m0yAqSamOZOTNaiVvvWIon0raQgpjmE2whqg3ZIdtkAy5zCbMslaTnwJennyeRvjVycNKzbY6rn6vjQS-ytlj0W9_Ddtagpd4iCUiizmkWvQNc455gy-SEozpCuw_ApF6yqiFHeR0gHnKV06YId8GQiFKJSKrBOX6Xl6CSUQzCyJuKJ5mD5ocUehXWVMvId6fbE_FYJ-Iu6esDEHpeel2uqO7eh68yZ6_5917NnmmkO_VrSs17vX4gsHWr75FzxHb4t2_NAocsc-8UbPH86p_RaDfNel-O1WYmFNirC43n0IL9I86_ri-FcaRDB-bN9QfjGCTGSkMHJw_auB8KfurCLg-kKVoPaXI7EBLx6GlB2hY52yOZ2f4QhphqieNz1ozRUExbY1GVYicZVdO66qmdMEcYVd1eVFhOaHnt4SAMmDKeFBqsZSB7BKwBhxoKP85bLYcUzsyQjm2tkJmTSpTHWBn-kFPVsqKL2VXZcaPmj8lwBkuhFs0-V3DEiPbb5OgKusc3rwbsoKffK4F46Oh69C6AMfcelh-iLs6XN5ejSGexnTBmOVi7HFwrkPY6NNHWxX-GbdodsYxLJbafLwlkcnjtxVnwPHl-z2jYvlB7aBPnqC-PlHR3rdvFyN6zC6CidzZ3LWXF5emqXf4Bx0_OSPKLSYQnlSSd9aAXw7ZBITejPeadK7EvjSd97lU4DDEoJefefi49Z19tMjREQviIXmEYNXQaBVCnQ-rUrcBfDkkLvWVCVLRUe1ZQwukvbc2wMS4WGYE3-sAs-sK8QNd8lBevEh6rOfuszzR5JowxZRiR79RbcsEz5JtBJWa-PmOYfoAFGF4o9UbRUTXy_dbml138eWdy1W00]--></g></svg>