<?xml version="1.0" encoding="us-ascii" standalone="no"?><svg xmlns="http://www.w3.org/2000/svg" xmlns:xlink="http://www.w3.org/1999/xlink" contentStyleType="text/css" height="705px" preserveAspectRatio="none" style="width:705px;height:705px;background:#FFFFFF;" version="1.1" viewBox="0 0 705 705" width="705px" zoomAndPan="magnify"><defs/><g><!--class Employee--><g id="elem_Employee"><rect codeLine="3" fill="#F1F1F1" height="149.2656" id="Employee" rx="2.5" ry="2.5" style="stroke:#181818;stroke-width:0.5;" width="234" x="114.5" y="199"/><ellipse cx="196.25" cy="221.6094" fill="#ADD1B2" rx="11" ry="11" style="stroke:#181818;stroke-width:1.0;"/><path d="M194.8125,220.4375 L199.3281,220.4375 L199.3281,222.2344 L194.8125,222.2344 L194.8125,226.6875 L200.0469,226.6875 L200.0469,228.4688 L192.75,228.4688 L192.75,215 L199.7188,215 L199.7188,216.7813 L194.8125,216.7813 L194.8125,220.4375 Z " fill="#000000"/><text fill="#000000" font-family="sans-serif" font-size="14" lengthAdjust="spacing" textLength="62" x="216.75" y="218.5332">Employee</text><text fill="#000000" font-family="sans-serif" font-size="14" lengthAdjust="spacing" textLength="56" x="219.75" y="236.1426">&#12304;&#31038;&#21729;&#12305;</text><line style="stroke:#181818;stroke-width:0.5;" x1="115.5" x2="347.5" y1="244.2188" y2="244.2188"/><ellipse cx="125.5" cy="258.5234" fill="#000000" rx="3" ry="3" style="stroke:#000000;stroke-width:1.0;"/><text fill="#000000" font-family="sans-serif" font-size="14" lengthAdjust="spacing" textLength="76" x="134.5" y="262.752">id : int &#171;PK&#187;</text><line style="stroke:#181818;stroke-width:1.0;" x1="115.5" x2="347.5" y1="269.8281" y2="269.8281"/><text fill="#000000" font-family="sans-serif" font-size="14" lengthAdjust="spacing" textLength="82" x="120.5" y="288.3613">name : string</text><text fill="#000000" font-family="sans-serif" font-size="14" lengthAdjust="spacing" textLength="80" x="120.5" y="305.9707">email : string</text><text fill="#000000" font-family="sans-serif" font-size="14" lengthAdjust="spacing" textLength="100" x="120.5" y="323.5801">hire_date : date</text><text fill="#000000" font-family="sans-serif" font-size="14" lengthAdjust="spacing" textLength="222" x="120.5" y="341.1895">site_id : int &#171;FK&#187; -- &#29694;&#22312;&#12398;&#37197;&#23646;&#29694;&#22580;</text></g><!--class Site--><g id="elem_Site"><rect codeLine="13" fill="#F1F1F1" height="114.0469" id="Site" rx="2.5" ry="2.5" style="stroke:#181818;stroke-width:0.5;" width="108" x="47.5" y="7"/><ellipse cx="71.5" cy="29.6094" fill="#ADD1B2" rx="11" ry="11" style="stroke:#181818;stroke-width:1.0;"/><path d="M70.0625,28.4375 L74.5781,28.4375 L74.5781,30.2344 L70.0625,30.2344 L70.0625,34.6875 L75.2969,34.6875 L75.2969,36.4688 L68,36.4688 L68,23 L74.9688,23 L74.9688,24.7813 L70.0625,24.7813 L70.0625,28.4375 Z " fill="#000000"/><text fill="#000000" font-family="sans-serif" font-size="14" lengthAdjust="spacing" textLength="24" x="103.5" y="26.5332">Site</text><text fill="#000000" font-family="sans-serif" font-size="14" lengthAdjust="spacing" textLength="56" x="87.5" y="44.1426">&#12304;&#29694;&#22580;&#12305;</text><line style="stroke:#181818;stroke-width:0.5;" x1="48.5" x2="154.5" y1="52.2188" y2="52.2188"/><ellipse cx="58.5" cy="66.5234" fill="#000000" rx="3" ry="3" style="stroke:#000000;stroke-width:1.0;"/><text fill="#000000" font-family="sans-serif" font-size="14" lengthAdjust="spacing" textLength="76" x="67.5" y="70.752">id : int &#171;PK&#187;</text><line style="stroke:#181818;stroke-width:1.0;" x1="48.5" x2="154.5" y1="77.8281" y2="77.8281"/><text fill="#000000" font-family="sans-serif" font-size="14" lengthAdjust="spacing" textLength="82" x="53.5" y="96.3613">name : string</text><text fill="#000000" font-family="sans-serif" font-size="14" lengthAdjust="spacing" textLength="96" x="53.5" y="113.9707">location : string</text></g><!--class EmployeeSiteHistory--><g id="elem_EmployeeSiteHistory"><rect codeLine="21" fill="#F1F1F1" height="272.5313" id="EmployeeSiteHistory" rx="2.5" ry="2.5" style="stroke:#181818;stroke-width:0.5;" width="161" x="7" y="426"/><ellipse cx="22" cy="448.6094" fill="#ADD1B2" rx="11" ry="11" style="stroke:#181818;stroke-width:1.0;"/><path d="M20.5625,447.4375 L25.0781,447.4375 L25.0781,449.2344 L20.5625,449.2344 L20.5625,453.6875 L25.7969,453.6875 L25.7969,455.4688 L18.5,455.4688 L18.5,442 L25.4688,442 L25.4688,443.7813 L20.5625,443.7813 L20.5625,447.4375 Z " fill="#000000"/><text fill="#000000" font-family="sans-serif" font-size="14" lengthAdjust="spacing" textLength="129" x="36" y="445.5332">EmployeeSiteHistory</text><text fill="#000000" font-family="sans-serif" font-size="14" lengthAdjust="spacing" textLength="112" x="44.5" y="463.1426">&#12304;&#31038;&#21729;&#29694;&#22580;&#23653;&#27508;&#12305;</text><line style="stroke:#181818;stroke-width:0.5;" x1="8" x2="167" y1="471.2188" y2="471.2188"/><ellipse cx="18" cy="485.5234" fill="#000000" rx="3" ry="3" style="stroke:#000000;stroke-width:1.0;"/><text fill="#000000" font-family="sans-serif" font-size="14" lengthAdjust="spacing" textLength="76" x="27" y="489.752">id : int &#171;PK&#187;</text><line style="stroke:#181818;stroke-width:1.0;" x1="8" x2="167" y1="496.8281" y2="496.8281"/><text fill="#000000" font-family="sans-serif" font-size="14" lengthAdjust="spacing" textLength="145" x="13" y="515.3613">employee_id : int &#171;FK&#187;</text><text fill="#000000" font-family="sans-serif" font-size="14" lengthAdjust="spacing" textLength="106" x="13" y="532.9707">site_id : int &#171;FK&#187;</text><text fill="#000000" font-family="sans-serif" font-size="14" lengthAdjust="spacing" textLength="104" x="13" y="550.5801">start_date : date</text><text fill="#000000" font-family="sans-serif" font-size="14" lengthAdjust="spacing" textLength="100" x="13" y="568.1895">end_date : date</text><text fill="#000000" font-family="sans-serif" font-size="14" lengthAdjust="spacing" textLength="71" x="13" y="585.7988">role : string</text><text fill="#000000" font-family="sans-serif" font-size="14" lengthAdjust="spacing" textLength="138" x="13" y="603.4082">task_summary : string</text><text fill="#000000" font-family="sans-serif" font-size="14" lengthAdjust="spacing" textLength="77" x="13" y="621.0176">tools : string</text><text fill="#000000" font-family="sans-serif" font-size="14" lengthAdjust="spacing" textLength="75" x="13" y="638.627">note : string</text><text fill="#000000" font-family="sans-serif" font-size="14" lengthAdjust="spacing" textLength="138" x="13" y="656.2363">company_eval : string</text><text fill="#000000" font-family="sans-serif" font-size="14" lengthAdjust="spacing" textLength="137" x="13" y="673.8457">recommended : string</text><text fill="#000000" font-family="sans-serif" font-size="14" lengthAdjust="spacing" textLength="139" x="13" y="691.4551">manager_note : string</text></g><!--class Training--><g id="elem_Training"><rect codeLine="38" fill="#F1F1F1" height="149.2656" id="Training" rx="2.5" ry="2.5" style="stroke:#181818;stroke-width:0.5;" width="128" x="570.5" y="199"/><ellipse cx="603.5" cy="221.6094" fill="#ADD1B2" rx="11" ry="11" style="stroke:#181818;stroke-width:1.0;"/><path d="M602.0625,220.4375 L606.5781,220.4375 L606.5781,222.2344 L602.0625,222.2344 L602.0625,226.6875 L607.2969,226.6875 L607.2969,228.4688 L600,228.4688 L600,215 L606.9688,215 L606.9688,216.7813 L602.0625,216.7813 L602.0625,220.4375 Z " fill="#000000"/><text fill="#000000" font-family="sans-serif" font-size="14" lengthAdjust="spacing" textLength="52" x="623.5" y="218.5332">Training</text><text fill="#000000" font-family="sans-serif" font-size="14" lengthAdjust="spacing" textLength="56" x="621.5" y="236.1426">&#12304;&#30740;&#20462;&#12305;</text><line style="stroke:#181818;stroke-width:0.5;" x1="571.5" x2="697.5" y1="244.2188" y2="244.2188"/><ellipse cx="581.5" cy="258.5234" fill="#000000" rx="3" ry="3" style="stroke:#000000;stroke-width:1.0;"/><text fill="#000000" font-family="sans-serif" font-size="14" lengthAdjust="spacing" textLength="76" x="590.5" y="262.752">id : int &#171;PK&#187;</text><line style="stroke:#181818;stroke-width:1.0;" x1="571.5" x2="697.5" y1="269.8281" y2="269.8281"/><text fill="#000000" font-family="sans-serif" font-size="14" lengthAdjust="spacing" textLength="82" x="576.5" y="288.3613">name : string</text><text fill="#000000" font-family="sans-serif" font-size="14" lengthAdjust="spacing" textLength="116" x="576.5" y="305.9707">description : string</text><text fill="#000000" font-family="sans-serif" font-size="14" lengthAdjust="spacing" textLength="104" x="576.5" y="323.5801">start_date : date</text><text fill="#000000" font-family="sans-serif" font-size="14" lengthAdjust="spacing" textLength="100" x="576.5" y="341.1895">end_date : date</text></g><!--class EmployeeTraining--><g id="elem_EmployeeTraining"><rect codeLine="48" fill="#F1F1F1" height="219.7031" id="EmployeeTraining" rx="2.5" ry="2.5" style="stroke:#181818;stroke-width:0.5;" width="158" x="515.5" y="452.5"/><ellipse cx="535.9" cy="475.1094" fill="#ADD1B2" rx="11" ry="11" style="stroke:#181818;stroke-width:1.0;"/><path d="M534.4625,473.9375 L538.9781,473.9375 L538.9781,475.7344 L534.4625,475.7344 L534.4625,480.1875 L539.6969,480.1875 L539.6969,481.9688 L532.4,481.9688 L532.4,468.5 L539.3688,468.5 L539.3688,470.2813 L534.4625,470.2813 L534.4625,473.9375 Z " fill="#000000"/><text fill="#000000" font-family="sans-serif" font-size="14" lengthAdjust="spacing" textLength="114" x="551.1" y="472.0332">EmployeeTraining</text><text fill="#000000" font-family="sans-serif" font-size="14" lengthAdjust="spacing" textLength="112" x="552.1" y="489.6426">&#12304;&#31038;&#21729;&#30740;&#20462;&#23653;&#27508;&#12305;</text><line style="stroke:#181818;stroke-width:0.5;" x1="516.5" x2="672.5" y1="497.7188" y2="497.7188"/><ellipse cx="526.5" cy="512.0234" fill="#000000" rx="3" ry="3" style="stroke:#000000;stroke-width:1.0;"/><text fill="#000000" font-family="sans-serif" font-size="14" lengthAdjust="spacing" textLength="76" x="535.5" y="516.252">id : int &#171;PK&#187;</text><line style="stroke:#181818;stroke-width:1.0;" x1="516.5" x2="672.5" y1="523.3281" y2="523.3281"/><text fill="#000000" font-family="sans-serif" font-size="14" lengthAdjust="spacing" textLength="145" x="521.5" y="541.8613">employee_id : int &#171;FK&#187;</text><text fill="#000000" font-family="sans-serif" font-size="14" lengthAdjust="spacing" textLength="131" x="521.5" y="559.4707">training_id : int &#171;FK&#187;</text><text fill="#000000" font-family="sans-serif" font-size="14" lengthAdjust="spacing" textLength="85" x="521.5" y="577.0801">status : string</text><text fill="#000000" font-family="sans-serif" font-size="14" lengthAdjust="spacing" textLength="62" x="521.5" y="594.6895">score : int</text><text fill="#000000" font-family="sans-serif" font-size="14" lengthAdjust="spacing" textLength="146" x="521.5" y="612.2988">report_submitted : bool</text><text fill="#000000" font-family="sans-serif" font-size="14" lengthAdjust="spacing" textLength="104" x="521.5" y="629.9082">comment : string</text><text fill="#000000" font-family="sans-serif" font-size="14" lengthAdjust="spacing" textLength="138" x="521.5" y="647.5176">understanding : string</text><text fill="#000000" font-family="sans-serif" font-size="14" lengthAdjust="spacing" textLength="105" x="521.5" y="665.127">feedback : string</text></g><!--class SkillCategory--><g id="elem_SkillCategory"><rect codeLine="62" fill="#F1F1F1" height="96.4375" id="SkillCategory" rx="2.5" ry="2.5" style="stroke:#181818;stroke-width:0.5;" width="158" x="380.5" y="16"/><ellipse cx="395.5" cy="38.6094" fill="#ADD1B2" rx="11" ry="11" style="stroke:#181818;stroke-width:1.0;"/><path d="M394.0625,37.4375 L398.5781,37.4375 L398.5781,39.2344 L394.0625,39.2344 L394.0625,43.6875 L399.2969,43.6875 L399.2969,45.4688 L392,45.4688 L392,32 L398.9688,32 L398.9688,33.7813 L394.0625,33.7813 L394.0625,37.4375 Z " fill="#000000"/><text fill="#000000" font-family="sans-serif" font-size="14" lengthAdjust="spacing" textLength="83" x="431" y="35.5332">SkillCategory</text><text fill="#000000" font-family="sans-serif" font-size="14" lengthAdjust="spacing" textLength="126" x="409.5" y="53.1426">&#12304;&#12473;&#12461;&#12523;&#12459;&#12486;&#12468;&#12522;&#12305;</text><line style="stroke:#181818;stroke-width:0.5;" x1="381.5" x2="537.5" y1="61.2188" y2="61.2188"/><ellipse cx="391.5" cy="75.5234" fill="#000000" rx="3" ry="3" style="stroke:#000000;stroke-width:1.0;"/><text fill="#000000" font-family="sans-serif" font-size="14" lengthAdjust="spacing" textLength="76" x="400.5" y="79.752">id : int &#171;PK&#187;</text><line style="stroke:#181818;stroke-width:1.0;" x1="381.5" x2="537.5" y1="86.8281" y2="86.8281"/><text fill="#000000" font-family="sans-serif" font-size="14" lengthAdjust="spacing" textLength="82" x="386.5" y="105.3613">name : string</text></g><!--class Skill--><g id="elem_Skill"><rect codeLine="69" fill="#F1F1F1" height="114.0469" id="Skill" rx="2.5" ry="2.5" style="stroke:#181818;stroke-width:0.5;" width="151" x="384" y="216.5"/><ellipse cx="421.05" cy="239.1094" fill="#ADD1B2" rx="11" ry="11" style="stroke:#181818;stroke-width:1.0;"/><path d="M419.6125,237.9375 L424.1281,237.9375 L424.1281,239.7344 L419.6125,239.7344 L419.6125,244.1875 L424.8469,244.1875 L424.8469,245.9688 L417.55,245.9688 L417.55,232.5 L424.5188,232.5 L424.5188,234.2813 L419.6125,234.2813 L419.6125,237.9375 Z " fill="#000000"/><text fill="#000000" font-family="sans-serif" font-size="14" lengthAdjust="spacing" textLength="25" x="462.45" y="236.0332">Skill</text><text fill="#000000" font-family="sans-serif" font-size="14" lengthAdjust="spacing" textLength="70" x="439.95" y="253.6426">&#12304;&#12473;&#12461;&#12523;&#12305;</text><line style="stroke:#181818;stroke-width:0.5;" x1="385" x2="534" y1="261.7188" y2="261.7188"/><ellipse cx="395" cy="276.0234" fill="#000000" rx="3" ry="3" style="stroke:#000000;stroke-width:1.0;"/><text fill="#000000" font-family="sans-serif" font-size="14" lengthAdjust="spacing" textLength="76" x="404" y="280.252">id : int &#171;PK&#187;</text><line style="stroke:#181818;stroke-width:1.0;" x1="385" x2="534" y1="287.3281" y2="287.3281"/><text fill="#000000" font-family="sans-serif" font-size="14" lengthAdjust="spacing" textLength="82" x="390" y="305.8613">name : string</text><text fill="#000000" font-family="sans-serif" font-size="14" lengthAdjust="spacing" textLength="139" x="390" y="323.4707">category_id : int &#171;FK&#187;</text></g><!--class EmployeeSkill--><g id="elem_EmployeeSkill"><rect codeLine="77" fill="#F1F1F1" height="237.3125" id="EmployeeSkill" rx="2.5" ry="2.5" style="stroke:#181818;stroke-width:0.5;" width="158" x="282.5" y="444"/><ellipse cx="297.5" cy="466.6094" fill="#ADD1B2" rx="11" ry="11" style="stroke:#181818;stroke-width:1.0;"/><path d="M296.0625,465.4375 L300.5781,465.4375 L300.5781,467.2344 L296.0625,467.2344 L296.0625,471.6875 L301.2969,471.6875 L301.2969,473.4688 L294,473.4688 L294,460 L300.9688,460 L300.9688,461.7813 L296.0625,461.7813 L296.0625,465.4375 Z " fill="#000000"/><text fill="#000000" font-family="sans-serif" font-size="14" lengthAdjust="spacing" textLength="87" x="331" y="463.5332">EmployeeSkill</text><text fill="#000000" font-family="sans-serif" font-size="14" lengthAdjust="spacing" textLength="126" x="311.5" y="481.1426">&#12304;&#31038;&#21729;&#12473;&#12461;&#12523;&#35413;&#20385;&#12305;</text><line style="stroke:#181818;stroke-width:0.5;" x1="283.5" x2="439.5" y1="489.2188" y2="489.2188"/><ellipse cx="293.5" cy="503.5234" fill="#000000" rx="3" ry="3" style="stroke:#000000;stroke-width:1.0;"/><text fill="#000000" font-family="sans-serif" font-size="14" lengthAdjust="spacing" textLength="76" x="302.5" y="507.752">id : int &#171;PK&#187;</text><line style="stroke:#181818;stroke-width:1.0;" x1="283.5" x2="439.5" y1="514.8281" y2="514.8281"/><text fill="#000000" font-family="sans-serif" font-size="14" lengthAdjust="spacing" textLength="145" x="288.5" y="533.3613">employee_id : int &#171;FK&#187;</text><text fill="#000000" font-family="sans-serif" font-size="14" lengthAdjust="spacing" textLength="107" x="288.5" y="550.9707">skill_id : int &#171;FK&#187;</text><text fill="#000000" font-family="sans-serif" font-size="14" lengthAdjust="spacing" textLength="116" x="288.5" y="568.5801">experience : string</text><text fill="#000000" font-family="sans-serif" font-size="14" lengthAdjust="spacing" textLength="95" x="288.5" y="586.1895">proficiency : int</text><text fill="#000000" font-family="sans-serif" font-size="14" lengthAdjust="spacing" textLength="75" x="288.5" y="603.7988">note : string</text><text fill="#000000" font-family="sans-serif" font-size="14" lengthAdjust="spacing" textLength="96" x="288.5" y="621.4082">eval_score : int</text><text fill="#000000" font-family="sans-serif" font-size="14" lengthAdjust="spacing" textLength="138" x="288.5" y="639.0176">eval_comment : string</text><text fill="#000000" font-family="sans-serif" font-size="14" lengthAdjust="spacing" textLength="106" x="288.5" y="656.627">evaluator : string</text><text fill="#000000" font-family="sans-serif" font-size="14" lengthAdjust="spacing" textLength="102" x="288.5" y="674.2363">eval_date : date</text></g><!--link Employee to EmployeeSiteHistory--><g id="link_Employee_EmployeeSiteHistory"><path codeLine="92" d="M184.632,355.1472 C179.112,365.1072 177.52,368.26 172.5,378 C164.62,393.29 164.4314,393.2237 156.6814,409.3637 " fill="none" id="Employee-EmployeeSiteHistory" style="stroke:#181818;stroke-width:1.0;"/><line style="stroke:#181818;stroke-width:1.0;" x1="183.0724" x2="190.0696" y1="349.7096" y2="353.5876"/><line style="stroke:#181818;stroke-width:1.0;" x1="181.6181" x2="188.6154" y1="352.3336" y2="356.2116"/><line style="stroke:#181818;stroke-width:1.0;" x1="184.632" x2="188.51" y1="355.1472" y2="348.15"/><line style="stroke:#181818;stroke-width:1.0;" x1="152.3529" x2="154.2988" y1="418.3783" y2="428.1871"/><line style="stroke:#181818;stroke-width:1.0;" x1="152.3529" x2="143.4812" y1="418.3783" y2="422.9929"/><line style="stroke:#181818;stroke-width:1.0;" x1="152.3529" x2="148.89" y1="418.3783" y2="425.59"/><ellipse cx="154.95" cy="412.9695" fill="none" rx="4" ry="4" style="stroke:#181818;stroke-width:1.0;"/><text fill="#000000" font-family="sans-serif" font-size="13" lengthAdjust="spacing" textLength="52" x="173.5" y="392.4951">&#37197;&#23646;&#23653;&#27508;</text></g><!--link Site to EmployeeSiteHistory--><g id="link_Site_EmployeeSiteHistory"><path codeLine="93" d="M74.7397,128.7939 C65.9397,152.3439 59.87,172.8 55.5,199 C43.07,273.47 46.5909,339.593 56.6809,407.933 " fill="none" id="Site-EmployeeSiteHistory" style="stroke:#181818;stroke-width:1.0;"/><line style="stroke:#181818;stroke-width:1.0;" x1="72.3929" x2="79.8868" y1="123.6468" y2="126.4471"/><line style="stroke:#181818;stroke-width:1.0;" x1="71.3428" x2="78.8367" y1="126.457" y2="129.2573"/><line style="stroke:#181818;stroke-width:1.0;" x1="74.7397" x2="77.54" y1="128.7939" y2="121.3"/><line style="stroke:#181818;stroke-width:1.0;" x1="58.1415" x2="65.2457" y1="417.8258" y2="424.8636"/><line style="stroke:#181818;stroke-width:1.0;" x1="58.1415" x2="53.3743" y1="417.8258" y2="426.6164"/><line style="stroke:#181818;stroke-width:1.0;" x1="58.1415" x2="59.31" y1="417.8258" y2="425.74"/><ellipse cx="57.2651" cy="411.8901" fill="none" rx="4" ry="4" style="stroke:#181818;stroke-width:1.0;"/><text fill="#000000" font-family="sans-serif" font-size="13" lengthAdjust="spacing" textLength="39" x="56.5" y="278.9951">&#25152;&#23646;&#20808;</text></g><!--link Site to Employee--><g id="link_Site_Employee"><path codeLine="94" d="M140.9259,127.9303 C155.8859,151.8203 159.7455,157.9651 175.7355,183.4951 " fill="none" id="Site-Employee" style="stroke:#181818;stroke-width:1.0;"/><line style="stroke:#181818;stroke-width:1.0;" x1="135.4128" x2="142.1931" y1="126.6631" y2="122.4172"/><line style="stroke:#181818;stroke-width:1.0;" x1="137.005" x2="143.7853" y1="129.2057" y2="124.9598"/><line style="stroke:#181818;stroke-width:1.0;" x1="140.9259" x2="136.68" y1="127.9303" y2="121.15"/><line style="stroke:#181818;stroke-width:1.0;" x1="181.0436" x2="190.375" y1="191.97" y2="195.5652"/><line style="stroke:#181818;stroke-width:1.0;" x1="181.0436" x2="180.205" y1="191.97" y2="201.9348"/><line style="stroke:#181818;stroke-width:1.0;" x1="181.0436" x2="185.29" y1="191.97" y2="198.75"/><ellipse cx="177.8587" cy="186.8851" fill="none" rx="4" ry="4" style="stroke:#181818;stroke-width:1.0;"/><text fill="#000000" font-family="sans-serif" font-size="13" lengthAdjust="spacing" textLength="65" x="167.5" y="165.4951">&#29694;&#22312;&#12398;&#37197;&#23646;</text></g><!--link Employee to EmployeeTraining--><g id="link_Employee_EmployeeTraining"><path codeLine="95" d="M301.9766,353.7346 C320.3566,371.3446 335.6,383.19 357.5,396 C397.55,419.43 417.6,402.32 457.5,426 C477.92,438.12 484.405,441.654 502.115,458.194 " fill="none" id="Employee-EmployeeTraining" style="stroke:#181818;stroke-width:1.0;"/><line style="stroke:#181818;stroke-width:1.0;" x1="296.321" x2="301.8556" y1="353.8556" y2="348.079"/><line style="stroke:#181818;stroke-width:1.0;" x1="298.4872" x2="304.0218" y1="355.931" y2="350.1545"/><line style="stroke:#181818;stroke-width:1.0;" x1="301.9766" x2="296.2" y1="353.7346" y2="348.2"/><line style="stroke:#181818;stroke-width:1.0;" x1="509.4233" x2="519.3653" y1="465.0196" y2="466.095"/><line style="stroke:#181818;stroke-width:1.0;" x1="509.4233" x2="511.1747" y1="465.0196" y2="474.865"/><line style="stroke:#181818;stroke-width:1.0;" x1="509.4233" x2="515.27" y1="465.0196" y2="470.48"/><ellipse cx="505.0383" cy="460.9243" fill="none" rx="4" ry="4" style="stroke:#181818;stroke-width:1.0;"/><text fill="#000000" font-family="sans-serif" font-size="13" lengthAdjust="spacing" textLength="52" x="358.5" y="392.4951">&#30740;&#20462;&#21463;&#35611;</text></g><!--link Training to EmployeeTraining--><g id="link_Training_EmployeeTraining"><path codeLine="96" d="M623.1459,355.9634 C618.7259,387.6834 617.054,399.6922 612.194,434.5722 " fill="none" id="Training-EmployeeTraining" style="stroke:#181818;stroke-width:1.0;"/><line style="stroke:#181818;stroke-width:1.0;" x1="619.7362" x2="627.6597" y1="351.4497" y2="352.5538"/><line style="stroke:#181818;stroke-width:1.0;" x1="619.3222" x2="627.2456" y1="354.421" y2="355.5251"/><line style="stroke:#181818;stroke-width:1.0;" x1="623.1459" x2="624.25" y1="355.9634" y2="348.04"/><line style="stroke:#181818;stroke-width:1.0;" x1="610.814" x2="615.6526" y1="444.4765" y2="453.228"/><line style="stroke:#181818;stroke-width:1.0;" x1="610.814" x2="603.7674" y1="444.4765" y2="451.572"/><line style="stroke:#181818;stroke-width:1.0;" x1="610.814" x2="609.71" y1="444.4765" y2="452.4"/><ellipse cx="611.642" cy="438.534" fill="none" rx="4" ry="4" style="stroke:#181818;stroke-width:1.0;"/><text fill="#000000" font-family="sans-serif" font-size="13" lengthAdjust="spacing" textLength="52" x="619.5" y="392.4951">&#23550;&#35937;&#30740;&#20462;</text></g><!--link Employee to EmployeeSkill--><g id="link_Employee_EmployeeSkill"><path codeLine="97" d="M229.5531,356.1441 C230.8531,372.2641 233.05,381.01 238.5,396 C248.58,423.76 254.296,436.3043 271.836,460.2243 " fill="none" id="Employee-EmployeeSkill" style="stroke:#181818;stroke-width:1.0;"/><line style="stroke:#181818;stroke-width:1.0;" x1="225.2445" x2="233.2186" y1="352.4786" y2="351.8355"/><line style="stroke:#181818;stroke-width:1.0;" x1="225.4856" x2="233.4597" y1="355.4689" y2="354.8258"/><line style="stroke:#181818;stroke-width:1.0;" x1="229.5531" x2="228.91" y1="356.1441" y2="348.17"/><line style="stroke:#181818;stroke-width:1.0;" x1="277.7493" x2="287.3186" y1="468.2886" y2="471.192"/><line style="stroke:#181818;stroke-width:1.0;" x1="277.7493" x2="277.6414" y1="468.2886" y2="478.288"/><line style="stroke:#181818;stroke-width:1.0;" x1="277.7493" x2="282.48" y1="468.2886" y2="474.74"/><ellipse cx="274.2013" cy="463.45" fill="none" rx="4" ry="4" style="stroke:#181818;stroke-width:1.0;"/><text fill="#000000" font-family="sans-serif" font-size="13" lengthAdjust="spacing" textLength="52" x="239.5" y="392.4951">&#25216;&#34899;&#20445;&#26377;</text></g><!--link Skill to EmployeeSkill--><g id="link_Skill_EmployeeSkill"><path codeLine="98" d="M437.7847,338.0907 C426.7547,370.3907 420.8684,387.6463 407.4784,426.8463 " fill="none" id="Skill-EmployeeSkill" style="stroke:#181818;stroke-width:1.0;"/><line style="stroke:#181818;stroke-width:1.0;" x1="435.292" x2="442.8627" y1="333.0127" y2="335.598"/><line style="stroke:#181818;stroke-width:1.0;" x1="434.3225" x2="441.8932" y1="335.8518" y2="338.4371"/><line style="stroke:#181818;stroke-width:1.0;" x1="437.7847" x2="440.37" y1="338.0907" y2="330.52"/><line style="stroke:#181818;stroke-width:1.0;" x1="404.246" x2="407.3379" y1="436.3095" y2="445.8195"/><line style="stroke:#181818;stroke-width:1.0;" x1="404.246" x2="395.9821" y1="436.3095" y2="441.9405"/><line style="stroke:#181818;stroke-width:1.0;" x1="404.246" x2="401.66" y1="436.3095" y2="443.88"/><ellipse cx="406.1854" cy="430.6316" fill="none" rx="4" ry="4" style="stroke:#181818;stroke-width:1.0;"/><text fill="#000000" font-family="sans-serif" font-size="13" lengthAdjust="spacing" textLength="65" x="423.5" y="392.4951">&#20445;&#26377;&#12473;&#12461;&#12523;</text></g><!--link SkillCategory to Skill--><g id="link_SkillCategory_Skill"><path codeLine="99" d="M459.5,120.08 C459.5,151.05 459.5,165.74 459.5,198.39 " fill="none" id="SkillCategory-Skill" style="stroke:#181818;stroke-width:1.0;"/><line style="stroke:#181818;stroke-width:1.0;" x1="455.5" x2="463.5" y1="116.08" y2="116.08"/><line style="stroke:#181818;stroke-width:1.0;" x1="455.5" x2="463.5" y1="119.08" y2="119.08"/><line style="stroke:#181818;stroke-width:1.0;" x1="459.5" x2="459.5" y1="120.08" y2="112.08"/><line style="stroke:#181818;stroke-width:1.0;" x1="459.5" x2="465.5" y1="208.39" y2="216.39"/><line style="stroke:#181818;stroke-width:1.0;" x1="459.5" x2="453.5" y1="208.39" y2="216.39"/><line style="stroke:#181818;stroke-width:1.0;" x1="459.5" x2="459.5" y1="208.39" y2="216.39"/><ellipse cx="459.5" cy="202.39" fill="none" rx="4" ry="4" style="stroke:#181818;stroke-width:1.0;"/><text fill="#000000" font-family="sans-serif" font-size="13" lengthAdjust="spacing" textLength="65" x="460.5" y="165.4951">&#23646;&#12377;&#12427;&#20998;&#39006;</text></g><!--SRC=[bLNTQXD15BxVfnXwKn3o0gNjZIY2Du9U2c6wEwr3TsV2x4GChP1cQMaLgL95r5WRKBJsHu85KIHzcEccwLiuivFTpcmdiRb9s6_EEVETyvrpPXhCpSs1yy-zTAUJVlhJRn_sa_LqhwjW3n6EUGDCtOfg8MqWz928vajjAvglfW2CGNu4LZm0RW0SW1c02GUpi_VkpizBh5AHFmH6I1x4d66o9BzH175e0eymGzK0ScMb_YGKOuwgHhpRCfwC1iwtUsdxcrWxlbX_aNPtrUVUYVVKywPrAjctHV- -ZAIfPsSvTGLFHZkaFkIOaakiT6tQ_T8_Ed7MJjrs1yUSiePHHjEjN5B3OpnDD7GeLsj44HNC8UEbUYCIb116Gojz3kFbQboF8YWPcJYbOMm2X7BBqQTH3P965Js6bkeCoPD8Nem24uuWWKk8LUqmbwNUUtrsUYoINT7wBLgdLhKVC8Y9jDObreR3ikP7aqaUeDXdk6QhVhq2bWYFwGsRjMuCmwVS6DVBP4nNy640TsVmkYLcx5E6j5acMOtApEFwGeGvptHRaF9haQMKt7IjIsMPZ4W2nTOuM4GeM83-iaFTJDGZaHo8re58DaJhH2JVxN5Unc5uKrPuAPybfqynvgRv9E8xA3bxBhkWnCEyUxA6yuTChsXpsKvw0UTt3VRVdFKwxfrJC7FwN5au_sSxRjKeRmUEdjGGmuZuLferHXUnh-16qLlbjQ7MHTLklmnoT9h2wr2koYl-pebKxP4SYkIlQFqIoLUH_4oFtv_tzhCg5a_QwcgbGbUS-tW6wDT73wYNFILZpVjRJMM-lkcqbGQbPsqaYsBuP_AzilrsSFZ1A_3HzkcFtg0xt2oZiyoQG19-rXnqTivEF_RRMvu6HrXgcwAtF7lWXawviKnDhBqJhUVfviP5PzVx1m00]--></g></svg>